<svg width="756" height="945" viewBox="0 0 756 945" fill="none" xmlns="http://www.w3.org/2000/svg">
<g clip-path="url(#clip0_671_2)" filter="url(#filter0_i_671_2)">
<rect width="756" height="945" fill="#F8F9FA"/> 
<g filter="url(#filter1_d_671_2)">
<rect x="226" y="281" width="304" height="384" rx="40" fill="white"/>
<path d="M258.148 326.165C256.973 326.165 255.932 326.004 255.023 325.682C254.117 325.364 253.354 324.894 252.733 324.273C252.112 323.655 251.64 322.898 251.318 322C250.996 321.102 250.835 320.078 250.835 318.926C250.835 317.805 250.998 316.797 251.324 315.903C251.65 315.009 252.123 314.248 252.744 313.619C253.369 312.987 254.129 312.504 255.023 312.17C255.917 311.837 256.932 311.67 258.068 311.67C259.155 311.67 260.114 311.841 260.943 312.182C261.773 312.523 262.47 312.991 263.034 313.585C263.602 314.18 264.03 314.862 264.318 315.631C264.606 316.4 264.75 317.212 264.75 318.068C264.75 318.667 264.712 319.252 264.636 319.824C264.561 320.392 264.42 320.907 264.216 321.369C264.015 321.828 263.723 322.195 263.341 322.472C262.962 322.744 262.47 322.886 261.864 322.898C261.542 322.909 261.229 322.871 260.926 322.784C260.623 322.697 260.366 322.557 260.153 322.364C259.941 322.167 259.813 321.917 259.767 321.614H259.699C259.608 321.837 259.456 322.045 259.244 322.239C259.032 322.428 258.761 322.58 258.432 322.693C258.106 322.803 257.727 322.848 257.295 322.83C256.818 322.811 256.388 322.703 256.006 322.506C255.623 322.309 255.295 322.036 255.023 321.688C254.754 321.339 254.547 320.926 254.403 320.449C254.259 319.972 254.188 319.441 254.188 318.858C254.188 318.297 254.269 317.795 254.432 317.352C254.595 316.905 254.816 316.521 255.097 316.199C255.381 315.873 255.706 315.616 256.074 315.426C256.441 315.237 256.83 315.117 257.239 315.068C257.636 315.023 258.002 315.034 258.335 315.102C258.669 315.17 258.945 315.275 259.165 315.415C259.388 315.555 259.528 315.708 259.585 315.875H259.659V315.239H261.057V320.511C261.057 320.811 261.134 321.064 261.29 321.273C261.449 321.481 261.674 321.585 261.966 321.585C262.311 321.585 262.58 321.458 262.773 321.205C262.97 320.951 263.108 320.561 263.188 320.034C263.271 319.508 263.312 318.833 263.312 318.011C263.312 317.436 263.235 316.894 263.08 316.386C262.928 315.875 262.703 315.413 262.403 315C262.108 314.583 261.744 314.225 261.312 313.926C260.881 313.627 260.388 313.396 259.835 313.233C259.286 313.07 258.678 312.989 258.011 312.989C257.106 312.989 256.301 313.129 255.597 313.409C254.892 313.686 254.297 314.085 253.812 314.608C253.331 315.131 252.966 315.758 252.716 316.489C252.47 317.216 252.347 318.032 252.347 318.938C252.347 319.881 252.473 320.718 252.727 321.449C252.981 322.176 253.356 322.79 253.852 323.29C254.348 323.79 254.962 324.169 255.693 324.426C256.424 324.688 257.267 324.818 258.222 324.818C258.646 324.818 259.063 324.78 259.472 324.705C259.881 324.633 260.244 324.549 260.562 324.455C260.884 324.364 261.125 324.29 261.284 324.233L261.682 325.477C261.447 325.587 261.134 325.695 260.744 325.801C260.358 325.907 259.938 325.994 259.483 326.062C259.032 326.131 258.587 326.165 258.148 326.165ZM257.625 321.438C258.117 321.438 258.513 321.339 258.812 321.142C259.116 320.945 259.333 320.652 259.466 320.261C259.602 319.867 259.67 319.375 259.67 318.784C259.667 318.208 259.593 317.75 259.449 317.409C259.309 317.064 259.089 316.818 258.79 316.67C258.494 316.519 258.114 316.443 257.648 316.443C257.22 316.443 256.854 316.547 256.551 316.756C256.252 316.964 256.023 317.246 255.864 317.602C255.708 317.958 255.629 318.354 255.625 318.79C255.629 319.248 255.693 319.68 255.818 320.085C255.947 320.487 256.155 320.812 256.443 321.062C256.735 321.312 257.129 321.438 257.625 321.438ZM270.303 323.176C269.458 323.176 268.731 322.985 268.121 322.602C267.515 322.216 267.049 321.684 266.723 321.006C266.397 320.328 266.234 319.551 266.234 318.676C266.234 317.79 266.401 317.008 266.734 316.33C267.068 315.648 267.537 315.116 268.143 314.733C268.75 314.35 269.464 314.159 270.286 314.159C270.948 314.159 271.539 314.282 272.058 314.528C272.577 314.771 272.996 315.112 273.314 315.551C273.636 315.991 273.827 316.504 273.888 317.091H272.234C272.143 316.682 271.935 316.33 271.609 316.034C271.287 315.739 270.856 315.591 270.314 315.591C269.84 315.591 269.426 315.716 269.07 315.966C268.717 316.212 268.443 316.564 268.246 317.023C268.049 317.477 267.95 318.015 267.95 318.636C267.95 319.273 268.047 319.822 268.24 320.284C268.433 320.746 268.706 321.104 269.058 321.358C269.414 321.612 269.833 321.739 270.314 321.739C270.636 321.739 270.928 321.68 271.189 321.562C271.454 321.441 271.676 321.269 271.854 321.045C272.036 320.822 272.162 320.553 272.234 320.239H273.888C273.827 320.803 273.643 321.307 273.337 321.75C273.03 322.193 272.619 322.542 272.104 322.795C271.592 323.049 270.992 323.176 270.303 323.176ZM275.705 323V314.273H277.347V315.659H277.438C277.597 315.189 277.877 314.82 278.278 314.551C278.684 314.278 279.142 314.142 279.653 314.142C279.759 314.142 279.884 314.146 280.028 314.153C280.176 314.161 280.292 314.17 280.375 314.182V315.807C280.307 315.788 280.186 315.767 280.011 315.744C279.837 315.718 279.663 315.705 279.489 315.705C279.087 315.705 278.729 315.79 278.415 315.96C278.104 316.127 277.858 316.36 277.676 316.659C277.494 316.955 277.403 317.292 277.403 317.67V323H275.705ZM285.294 323.176C284.434 323.176 283.694 322.992 283.072 322.625C282.455 322.254 281.978 321.733 281.641 321.062C281.307 320.388 281.141 319.598 281.141 318.693C281.141 317.799 281.307 317.011 281.641 316.33C281.978 315.648 282.447 315.116 283.05 314.733C283.656 314.35 284.364 314.159 285.175 314.159C285.667 314.159 286.144 314.241 286.607 314.403C287.069 314.566 287.483 314.822 287.851 315.17C288.218 315.519 288.508 315.972 288.72 316.528C288.932 317.081 289.038 317.754 289.038 318.545V319.148H282.101V317.875H287.374C287.374 317.428 287.283 317.032 287.101 316.688C286.919 316.339 286.663 316.064 286.334 315.864C286.008 315.663 285.625 315.562 285.186 315.562C284.709 315.562 284.292 315.68 283.936 315.915C283.584 316.146 283.311 316.449 283.118 316.824C282.929 317.195 282.834 317.598 282.834 318.034V319.028C282.834 319.612 282.936 320.108 283.141 320.517C283.349 320.926 283.639 321.239 284.01 321.455C284.381 321.667 284.815 321.773 285.311 321.773C285.633 321.773 285.927 321.727 286.192 321.636C286.457 321.542 286.686 321.402 286.879 321.216C287.072 321.03 287.22 320.801 287.322 320.528L288.93 320.818C288.802 321.292 288.571 321.706 288.237 322.062C287.908 322.415 287.493 322.689 286.993 322.886C286.497 323.08 285.93 323.176 285.294 323.176ZM293.463 323.193C292.91 323.193 292.41 323.091 291.963 322.886C291.516 322.678 291.162 322.377 290.901 321.983C290.643 321.589 290.514 321.106 290.514 320.534C290.514 320.042 290.609 319.636 290.798 319.318C290.988 319 291.243 318.748 291.565 318.562C291.887 318.377 292.247 318.237 292.645 318.142C293.043 318.047 293.448 317.975 293.861 317.926C294.384 317.866 294.808 317.816 295.134 317.778C295.459 317.737 295.696 317.67 295.844 317.58C295.991 317.489 296.065 317.341 296.065 317.136V317.097C296.065 316.6 295.925 316.216 295.645 315.943C295.368 315.67 294.955 315.534 294.406 315.534C293.834 315.534 293.384 315.661 293.054 315.915C292.728 316.165 292.503 316.443 292.378 316.75L290.781 316.386C290.971 315.856 291.247 315.428 291.611 315.102C291.978 314.773 292.401 314.534 292.878 314.386C293.355 314.235 293.857 314.159 294.384 314.159C294.732 314.159 295.101 314.201 295.491 314.284C295.885 314.364 296.253 314.511 296.594 314.727C296.938 314.943 297.221 315.252 297.44 315.653C297.66 316.051 297.77 316.568 297.77 317.205V323H296.111V321.807H296.043C295.933 322.027 295.768 322.242 295.548 322.455C295.329 322.667 295.046 322.843 294.702 322.983C294.357 323.123 293.944 323.193 293.463 323.193ZM293.832 321.83C294.302 321.83 294.704 321.737 295.037 321.551C295.374 321.366 295.63 321.123 295.804 320.824C295.982 320.521 296.071 320.197 296.071 319.852V318.727C296.01 318.788 295.893 318.845 295.719 318.898C295.548 318.947 295.353 318.991 295.134 319.028C294.914 319.062 294.7 319.095 294.491 319.125C294.283 319.152 294.109 319.174 293.969 319.193C293.639 319.235 293.338 319.305 293.065 319.403C292.796 319.502 292.58 319.644 292.418 319.83C292.259 320.011 292.179 320.254 292.179 320.557C292.179 320.977 292.334 321.295 292.645 321.511C292.955 321.723 293.351 321.83 293.832 321.83ZM304.107 314.273V315.636H299.339V314.273H304.107ZM300.618 312.182H302.317V320.438C302.317 320.767 302.366 321.015 302.464 321.182C302.563 321.345 302.69 321.456 302.845 321.517C303.004 321.574 303.177 321.602 303.362 321.602C303.499 321.602 303.618 321.593 303.72 321.574C303.822 321.555 303.902 321.54 303.959 321.528L304.266 322.932C304.167 322.97 304.027 323.008 303.845 323.045C303.663 323.087 303.436 323.11 303.163 323.114C302.716 323.121 302.3 323.042 301.913 322.875C301.527 322.708 301.214 322.451 300.976 322.102C300.737 321.754 300.618 321.316 300.618 320.79V312.182ZM309.568 323.176C308.75 323.176 308.036 322.989 307.426 322.614C306.816 322.239 306.343 321.714 306.006 321.04C305.669 320.366 305.5 319.578 305.5 318.676C305.5 317.771 305.669 316.979 306.006 316.301C306.343 315.623 306.816 315.097 307.426 314.722C308.036 314.347 308.75 314.159 309.568 314.159C310.386 314.159 311.1 314.347 311.71 314.722C312.32 315.097 312.794 315.623 313.131 316.301C313.468 316.979 313.636 317.771 313.636 318.676C313.636 319.578 313.468 320.366 313.131 321.04C312.794 321.714 312.32 322.239 311.71 322.614C311.1 322.989 310.386 323.176 309.568 323.176ZM309.574 321.75C310.104 321.75 310.544 321.61 310.892 321.33C311.241 321.049 311.498 320.676 311.665 320.21C311.835 319.744 311.92 319.231 311.92 318.67C311.92 318.114 311.835 317.602 311.665 317.136C311.498 316.667 311.241 316.29 310.892 316.006C310.544 315.722 310.104 315.58 309.574 315.58C309.04 315.58 308.597 315.722 308.244 316.006C307.896 316.29 307.636 316.667 307.466 317.136C307.299 317.602 307.216 318.114 307.216 318.67C307.216 319.231 307.299 319.744 307.466 320.21C307.636 320.676 307.896 321.049 308.244 321.33C308.597 321.61 309.04 321.75 309.574 321.75ZM315.533 323V314.273H317.175V315.659H317.266C317.425 315.189 317.705 314.82 318.107 314.551C318.512 314.278 318.97 314.142 319.482 314.142C319.588 314.142 319.713 314.146 319.857 314.153C320.004 314.161 320.12 314.17 320.203 314.182V315.807C320.135 315.788 320.014 315.767 319.839 315.744C319.665 315.718 319.491 315.705 319.317 315.705C318.915 315.705 318.557 315.79 318.243 315.96C317.932 316.127 317.686 316.36 317.504 316.659C317.322 316.955 317.232 317.292 317.232 317.67V323H315.533Z" fill="#94999E"/>
<path d="M258.889 371.278C255.379 371.278 252.675 369.379 252.009 366.615C251.839 365.889 252.297 365.462 253.033 365.462H254.464C255.111 365.462 255.409 365.79 255.668 366.396C256.175 367.55 257.418 368.295 258.889 368.295C261.067 368.295 262.638 366.675 262.628 364.398C262.638 362.091 261.027 360.44 258.79 360.43C257.875 360.42 256.92 360.709 256.214 361.166C255.727 361.484 255.349 361.643 254.783 361.554L253.301 361.305C252.615 361.196 252.297 360.768 252.366 360.082L253.212 351.67C253.281 350.994 253.679 350.636 254.365 350.636H264.04C264.746 350.636 265.134 351.024 265.134 351.73V352.625C265.134 353.331 264.746 353.719 264.04 353.719H256.374L255.787 359.118H255.906C256.662 358.223 258.124 357.567 259.774 357.567C263.473 357.567 266.197 360.391 266.197 364.308C266.197 368.355 263.195 371.278 258.889 371.278ZM281.916 371.288C278.088 371.07 275.543 369.24 274.946 366.138C274.807 365.402 275.244 364.984 275.98 364.984H277.462C278.118 364.984 278.416 365.322 278.645 365.949C279.122 367.232 280.355 367.947 281.916 368.116V362.121L280.783 361.832C277.432 360.967 275.354 359.287 275.354 356.364C275.344 353.023 278.108 350.716 281.916 350.398V349.185C281.916 348.479 282.205 348.091 282.732 348.091C283.259 348.091 283.547 348.479 283.547 349.185V350.378C287.007 350.607 289.443 352.436 290.03 355.081C290.189 355.807 289.742 356.234 289.006 356.234H287.584C286.938 356.234 286.639 355.916 286.371 355.31C285.913 354.315 284.929 353.689 283.547 353.52V359.188L284.462 359.416C287.524 360.142 290.438 361.753 290.447 365.283C290.438 368.663 287.922 371.02 283.547 371.288V372.452C283.547 373.158 283.259 373.545 282.732 373.545C282.205 373.545 281.916 373.158 281.916 372.452V371.288ZM279.092 356.135C279.072 357.616 280.455 358.342 281.916 358.77V353.54C280.136 353.788 279.102 354.803 279.092 356.135ZM283.547 368.107C285.476 367.858 286.749 366.774 286.759 365.253C286.749 363.781 285.496 363.085 283.547 362.548V368.107ZM307.743 357.139C307.117 357.139 306.759 356.851 306.48 356.274C305.675 354.634 304.144 353.669 302.036 353.669C298.744 353.669 296.368 356.214 296.368 360.798C296.368 365.412 298.705 367.967 302.115 367.967C305.178 367.967 307.117 366.128 307.176 363.224H303.577C302.871 363.224 302.483 362.837 302.483 362.131V361.435C302.483 360.729 302.871 360.341 303.577 360.341H309.652C310.358 360.341 310.746 360.729 310.746 361.435V362.787C310.746 368.037 307.136 371.278 302.095 371.278C296.477 371.278 292.659 367.281 292.659 360.838C292.659 354.276 296.656 350.358 301.986 350.358C306.023 350.358 309.215 352.595 310.288 355.926C310.527 356.672 310.109 357.139 309.334 357.139H307.743ZM313.753 351.73C313.753 351.024 314.141 350.636 314.847 350.636H316.348C317.054 350.636 317.442 351.024 317.442 351.73V359.257H326.878V351.73C326.878 351.024 327.266 350.636 327.972 350.636H329.483C330.189 350.636 330.577 351.024 330.577 351.73V369.906C330.577 370.612 330.189 371 329.483 371H327.972C327.266 371 326.878 370.612 326.878 369.906V362.349H317.442V369.906C317.442 370.612 317.054 371 316.348 371H314.847C314.141 371 313.753 370.612 313.753 369.906V351.73ZM352.225 360.818C352.225 367.401 348.208 371.278 342.868 371.278C337.519 371.278 333.512 367.391 333.512 360.818C333.512 354.236 337.519 350.358 342.868 350.358C348.208 350.358 352.225 354.236 352.225 360.818ZM337.221 360.818C337.221 365.452 339.557 367.967 342.868 367.967C346.189 367.967 348.516 365.452 348.516 360.818C348.516 356.185 346.189 353.669 342.868 353.669C339.557 353.669 337.221 356.185 337.221 360.818Z" fill="#2C2D30"/>
<rect x="450" y="305" width="56" height="56" rx="28" fill="#D946EF"/>
<path d="M476.363 318.027C477.007 316.658 478.993 316.658 479.637 318.027L483.003 325.178C483.265 325.736 483.805 326.12 484.428 326.193L492.407 327.12C493.935 327.297 494.548 329.148 493.419 330.172L487.519 335.518C487.059 335.936 486.853 336.557 486.975 337.16L488.541 344.884C488.841 346.363 487.235 347.507 485.892 346.77L478.881 342.924C478.333 342.624 477.667 342.624 477.119 342.924L470.108 346.77C468.765 347.507 467.159 346.363 467.459 344.884L469.025 337.16C469.147 336.557 468.941 335.936 468.481 335.518L462.581 330.172C461.452 329.148 462.065 327.297 463.593 327.12L471.572 326.193C472.195 326.12 472.735 325.736 472.997 325.178L476.363 318.027Z" fill="white"/>
<rect x="250" y="393" width="256" height="248" rx="16" fill="#F8F9FA"/>
<rect x="270" y="413" width="96" height="20" rx="10" fill="#ECEEF0"/>
<rect x="270" y="449" width="192" height="20" rx="10" fill="#ECEEF0"/>
<rect x="270" y="485" width="144" height="20" rx="10" fill="#ECEEF0"/>
<rect x="270" y="521" width="160" height="20" rx="10" fill="#ECEEF0"/>
<rect x="270" y="557" width="80" height="20" rx="10" fill="#ECEEF0"/>
</g>
<rect x="570.75" y="281.75" width="302.5" height="382.5" rx="39.25" stroke="#ECEEF0" stroke-width="1.5"/>
<rect x="594.75" y="305.75" width="70.5" height="22.5" rx="11.25" stroke="#ECEEF0" stroke-width="1.5"/>
<rect x="594.75" y="345.75" width="126.5" height="30.5" rx="15.25" stroke="#ECEEF0" stroke-width="1.5"/>
<rect x="594.75" y="393.75" width="254.5" height="246.5" rx="15.25" stroke="#ECEEF0" stroke-width="1.5"/>
<rect x="-117.25" y="281.75" width="302.5" height="382.5" rx="39.25" stroke="#ECEEF0" stroke-width="1.5"/>
<rect x="-93.25" y="345.75" width="126.5" height="30.5" rx="15.25" stroke="#ECEEF0" stroke-width="1.5"/>
<rect x="106.75" y="305.75" width="54.5" height="54.5" rx="27.25" stroke="#ECEEF0" stroke-width="1.5"/>
<path d="M133.042 318.346C133.393 317.601 134.441 317.555 134.879 318.206L134.958 318.346L138.324 325.497C138.676 326.244 139.371 326.767 140.178 326.913L140.341 326.938L148.32 327.865C149.175 327.965 149.508 328.911 149.023 329.503L148.915 329.616L143.016 334.963C142.403 335.518 142.103 336.334 142.213 337.146L142.24 337.309L143.807 345.033C143.962 345.799 143.178 346.471 142.407 346.184L142.253 346.113L135.241 342.267C134.518 341.87 133.647 341.844 132.905 342.191L132.759 342.267L125.747 346.113C124.982 346.533 124.14 345.934 124.175 345.185L124.193 345.033L125.76 337.309C125.924 336.498 125.673 335.666 125.103 335.077L124.984 334.963L119.085 329.616C118.49 329.077 118.732 328.102 119.516 327.896L119.68 327.865L127.659 326.938C128.48 326.842 129.204 326.36 129.601 325.644L129.676 325.497L133.042 318.346Z" stroke="#ECEEF0" stroke-width="1.5"/>
<rect x="-93.25" y="393.75" width="254.5" height="246.5" rx="15.25" stroke="#ECEEF0" stroke-width="1.5"/>
<rect x="570.75" y="705.75" width="302.5" height="382.5" rx="39.25" stroke="#ECEEF0" stroke-width="1.5"/>
<rect x="594.75" y="729.75" width="70.5" height="22.5" rx="11.25" stroke="#ECEEF0" stroke-width="1.5"/>
<rect x="594.75" y="769.75" width="126.5" height="30.5" rx="15.25" stroke="#ECEEF0" stroke-width="1.5"/>
<rect x="594.75" y="817.75" width="254.5" height="246.5" rx="15.25" stroke="#ECEEF0" stroke-width="1.5"/>
<rect x="226.75" y="705.75" width="302.5" height="382.5" rx="39.25" stroke="#ECEEF0" stroke-width="1.5"/>
<rect x="250.75" y="729.75" width="70.5" height="22.5" rx="11.25" stroke="#ECEEF0" stroke-width="1.5"/>
<rect x="250.75" y="769.75" width="126.5" height="30.5" rx="15.25" stroke="#ECEEF0" stroke-width="1.5"/>
<rect x="450.75" y="729.75" width="54.5" height="54.5" rx="27.25" stroke="#ECEEF0" stroke-width="1.5"/>
<path d="M477.042 742.346C477.393 741.601 478.441 741.555 478.879 742.206L478.958 742.346L482.324 749.497C482.676 750.244 483.371 750.767 484.178 750.913L484.341 750.938L492.32 751.865C493.175 751.965 493.508 752.911 493.023 753.503L492.915 753.616L487.016 758.963C486.403 759.518 486.103 760.334 486.213 761.146L486.24 761.309L487.807 769.033C487.962 769.799 487.178 770.471 486.407 770.184L486.253 770.113L479.241 766.267C478.518 765.87 477.647 765.844 476.905 766.191L476.759 766.267L469.747 770.113C468.982 770.533 468.14 769.934 468.175 769.185L468.193 769.033L469.76 761.309C469.924 760.498 469.673 759.666 469.103 759.077L468.984 758.963L463.085 753.616C462.49 753.077 462.732 752.102 463.516 751.896L463.68 751.865L471.659 750.938C472.48 750.842 473.204 750.36 473.601 749.644L473.676 749.497L477.042 742.346Z" stroke="#ECEEF0" stroke-width="1.5"/>
<rect x="250.75" y="817.75" width="254.5" height="246.5" rx="15.25" stroke="#ECEEF0" stroke-width="1.5"/>
<rect x="-117.25" y="705.75" width="302.5" height="382.5" rx="39.25" stroke="#ECEEF0" stroke-width="1.5"/>
<rect x="-93.25" y="769.75" width="126.5" height="30.5" rx="15.25" stroke="#ECEEF0" stroke-width="1.5"/>
<rect x="106.75" y="729.75" width="54.5" height="54.5" rx="27.25" stroke="#ECEEF0" stroke-width="1.5"/>
<path d="M133.042 742.346C133.393 741.601 134.441 741.555 134.879 742.206L134.958 742.346L138.324 749.497C138.676 750.244 139.371 750.767 140.178 750.913L140.341 750.938L148.32 751.865C149.175 751.965 149.508 752.911 149.023 753.503L148.915 753.616L143.016 758.963C142.403 759.518 142.103 760.334 142.213 761.146L142.24 761.309L143.807 769.033C143.962 769.799 143.178 770.471 142.407 770.184L142.253 770.113L135.241 766.267C134.518 765.87 133.647 765.844 132.905 766.191L132.759 766.267L125.747 770.113C124.982 770.533 124.14 769.934 124.175 769.185L124.193 769.033L125.76 761.309C125.924 760.498 125.673 759.666 125.103 759.077L124.984 758.963L119.085 753.616C118.49 753.077 118.732 752.102 119.516 751.896L119.68 751.865L127.659 750.938C128.48 750.842 129.204 750.36 129.601 749.644L129.676 749.497L133.042 742.346Z" stroke="#ECEEF0" stroke-width="1.5"/>
<rect x="-93.25" y="817.75" width="254.5" height="246.5" rx="15.25" stroke="#ECEEF0" stroke-width="1.5"/>
<rect x="570.75" y="-142.25" width="302.5" height="382.5" rx="39.25" stroke="#ECEEF0" stroke-width="1.5"/>
<rect x="594.75" y="-30.25" width="254.5" height="246.5" rx="15.25" stroke="#ECEEF0" stroke-width="1.5"/>
<rect x="226.75" y="-142.25" width="302.5" height="382.5" rx="39.25" stroke="#ECEEF0" stroke-width="1.5"/>
<rect x="250.75" y="-30.25" width="254.5" height="246.5" rx="15.25" stroke="#ECEEF0" stroke-width="1.5"/>
<rect x="-117.25" y="-142.25" width="302.5" height="382.5" rx="39.25" stroke="#ECEEF0" stroke-width="1.5"/>
<rect x="-93.25" y="-30.25" width="254.5" height="246.5" rx="15.25" stroke="#ECEEF0" stroke-width="1.5"/>
</g>
<defs>
<filter id="filter0_i_671_2" x="0" y="0" width="757" height="945" filterUnits="userSpaceOnUse" color-interpolation-filters="sRGB">
<feFlood flood-opacity="0" result="BackgroundImageFix"/>
<feBlend mode="normal" in="SourceGraphic" in2="BackgroundImageFix" result="shape"/>
<feColorMatrix in="SourceAlpha" type="matrix" values="0 0 0 0 0 0 0 0 0 0 0 0 0 0 0 0 0 0 127 0" result="hardAlpha"/>
<feOffset dx="1"/>
<feGaussianBlur stdDeviation="1.5"/>
<feComposite in2="hardAlpha" operator="arithmetic" k2="-1" k3="1"/>
<feColorMatrix type="matrix" values="0 0 0 0 0.172549 0 0 0 0 0.176471 0 0 0 0 0.188235 0 0 0 0.05 0"/>
<feBlend mode="normal" in2="shape" result="effect1_innerShadow_671_2"/>
</filter>
<filter id="filter1_d_671_2" x="223" y="279" width="310" height="390" filterUnits="userSpaceOnUse" color-interpolation-filters="sRGB">
<feFlood flood-opacity="0" result="BackgroundImageFix"/>
<feColorMatrix in="SourceAlpha" type="matrix" values="0 0 0 0 0 0 0 0 0 0 0 0 0 0 0 0 0 0 127 0" result="hardAlpha"/>
<feOffset dy="1"/>
<feGaussianBlur stdDeviation="1.5"/>
<feComposite in2="hardAlpha" operator="out"/>
<feColorMatrix type="matrix" values="0 0 0 0 0.172549 0 0 0 0 0.176471 0 0 0 0 0.188235 0 0 0 0.1 0"/>
<feBlend mode="normal" in2="BackgroundImageFix" result="effect1_dropShadow_671_2"/>
<feBlend mode="normal" in="SourceGraphic" in2="effect1_dropShadow_671_2" result="shape"/>
</filter>
<clipPath id="clip0_671_2">
<rect width="756" height="945" fill="white"/>
</clipPath>
</defs>
</svg>
